<svg xmlns="http://www.w3.org/2000/svg" viewBox="0 0 24 24" role="img" aria-label="researchmap icon">
  <path fill="currentColor" fill-rule="evenodd" d="M4.8.6h11c1.8 0 3.1.8 3.9 2.4l4 9-4 9c-.8 1.6-2.1 2.4-3.9 2.4h-11C2.4 23.4.6 21.6.6 19.2V4.8C.6 2.4 2.4.6 4.8.6ZM4.8 16.7V7.4h1.7v1.2c.6-.9 1.4-1.3 2.5-1.3h.6v2.2h-.8c-1.4 0-2.1.9-2.1 2.6v4.6H4.8Zm5.9 0v-9h1.35v1.05c.45-.75 1.1-1.15 1.9-1.15.9 0 1.55.45 1.9 1.3.55-.85 1.3-1.3 2.2-1.3 1.25 0 1.9.95 1.9 2.75v6.35H18.4v-5.45c0-.95-.25-1.4-.8-1.4-.65 0-1 .65-1 1.7v5.15h-1.55v-5.45c0-.95-.25-1.4-.8-1.4-.65 0-1.45.65-1.45 1.7v5.15h-2.1Z"/>
</svg>
